# xmcd CD database file
#
# Track frame offsets:
#	150
#	23780
#	49750
#
# Disc length: 1032 seconds
#
# Revision: 0
# Processed by: cddbd v1.5.1PL0 Copyright (c) Steve Scherf et al.
# Submitted via: CDex 1.51
#
DISCID=1c040603
DTITLE=Electric Warrior - Black Snake Shake
DYEAR=1994
DGENRE=Hard Rock
TTITLE0=Goin' Down
TTITLE1=Hold on to Me
TTITLE2=Black Snake Shake
EXTD=YEAR: 1994
EXTT0=
EXTT1=
EXTT2=
PLAYORDER=
